<svg xmlns="http://www.w3.org/2000/svg" viewBox="0 0 1400 980">
    <path id="Background" fill="#ebedf2" d="M0 0h1400v980H0z" />
    <g id="Object">
      <linearGradient id="SVGID_1_" x1="-3235.488" x2="-3229.809" y1="-4513.918" y2="-4576.093"
        gradientTransform="rotate(112.886 -2880.14 -874.395)" gradientUnits="userSpaceOnUse">
        <stop offset="0" stop-color="#39b54a" />
        <stop offset="1" stop-color="#009444" />
      </linearGradient>
      <path fill="url(#SVGID_1_)"
        d="M692.2 131.9s-9.3 26.7-2.4 56.4 12 43-13.2 79.6c-25.2 36.6-37 49.6-67.6 48.4s-55.4-8.3-55.4-8.3-6.7-32.5 19.3-78 32.5-34.4 45-69.6c8.9-25.3 74.3-28.5 74.3-28.5z" />
      <linearGradient id="SVGID_2_" x1="-3222.556" x2="-3229.73" y1="-4590.264" y2="-4551.703"
        gradientTransform="rotate(112.886 -2880.14 -874.395)" gradientUnits="userSpaceOnUse">
        <stop offset="0" stop-color="#39b54a" />
        <stop offset="1" stop-color="#009444" />
      </linearGradient>
      <path fill="url(#SVGID_2_)"
        d="M657 190c-27 57.2-41 72.1-54.9 85.5-11.5 11-39.5 25.3-48.7 30.8.1 1.1.3 1.6.3 1.6s24.8 7 55.4 8.3 42.4-11.8 67.6-48.4c25.2-36.6 20.1-49.9 13.2-79.6-6.9-29.7 2.4-56.4 2.4-56.4S684 132.9 657 190z" />
      <path
        d="M553.6 308s8.7-4 19.9-10.3c.8.8 2.1 2 3.9 3.1 3.1 1.9 13 6.1 20.9 7.4 7.9 1.2 24.3-.5 24.3-.5s-10 .2-25-1.8c-15.1-2-22-9.3-22-9.3 12.2-7 26.9-16.5 36.3-26.5 9.2.7 39.5 2.8 46 1.4 7.7-1.8 15.5-9.5 15.5-9.5s-2.7 1.8-9.2 5.2c-6.5 3.4-15 3.7-26.5 2.8-11.4-.9-23.2-2.8-23.2-2.8 10.2-11.5 19.2-24.7 27-38.8 5.7 0 26.4-.6 34.2-7.3 9.1-7.8 11.9-13.3 11.9-13.3s-5.3 9.1-17.6 13.3c-12.3 4.2-27 4.4-27 4.4 4.9-9.2 9.2-18.8 13-28.5.5-1.2.9-2.4 1.4-3.6 2.6-1.3 7.3-3.9 10.2-5.9 4.1-2.8 14.9-21.8 14.9-21.8s-11.6 14.7-15.1 18.6c-2.4 2.6-6.3 4.5-8.4 5.5 10.5-24.5 26.1-50 26.1-50s-22.7 32-30.2 52.1c-1.7 4.7-3.5 9-5.4 13.2-.3-5.5-.8-16.8.4-28.4 1.7-16.3 4.8-22.8 4.8-22.8s-4.2 4.9-6.7 23.1c-1.8 13.3-.8 25.9-.1 31.7-8.7 18.7-18.1 31.7-26 41.9-1.7-5.8-9-31.9-8.6-37.5.4-6.3 7.3-21.9 8.2-26.4.9-4.5 1.2-14.1 1.2-14.1s-1.2 9.9-4.3 17c-3 7.2-7.3 11-8 23.2-.7 10.8 7.7 34.6 9.7 40-3 3.8-5.7 7.3-8 10.5-4.1 5.8-14.2 13.6-24.9 20.9-1.3-2.6-3.8-8.6-4.9-19-1.5-14.4 2.3-28.2 6.5-36.2 4.2-8 6.1-9.8 6.1-9.8s-5.8 3.7-10.8 15.9c-5 12.2-4.9 28.6-4.2 35.7.5 5.3 2.8 12.4 3.8 15.7-15.2 10.2-30.3 18.8-30.3 18.8l.2 2.7z"
        class="st3" />
      <linearGradient id="SVGID_3_" x1="-6158.568" x2="-6150.094" y1="-577.048" y2="-669.815"
        gradientTransform="rotate(-149.871 -2419.934 -976.577)" gradientUnits="userSpaceOnUse">
        <stop offset="0" stop-color="#39b54a" />
        <stop offset="1" stop-color="#009444" />
      </linearGradient>
      <path fill="url(#SVGID_3_)"
        d="M1119.8 690s-37.8-18.8-83.1-14.2c-45.3 4.7-66 9.7-115.4-34.5-49.4-44.1-66.5-64.1-58.8-109.2 7.6-45.1 22.7-80.4 22.7-80.4s49.4-3.8 111.8 43.2 44.9 54.7 94.6 79.6c35.8 18.1 28.2 115.5 28.2 115.5z" />
      <linearGradient id="SVGID_4_" x1="-6139.273" x2="-6149.977" y1="-690.958" y2="-633.425"
        gradientTransform="rotate(-149.871 -2419.934 -976.577)" gradientUnits="userSpaceOnUse">
        <stop offset="0" stop-color="#39b54a" />
        <stop offset="1" stop-color="#009444" />
      </linearGradient>
      <path fill="url(#SVGID_4_)"
        d="M1040.4 626.9c-79.5-50.7-99-74.2-116.2-97.4-14.2-19.1-30-63.3-36.5-77.8-1.6 0-2.5.1-2.5.1s-15.1 35.3-22.7 80.4c-7.6 45.1 9.4 65 58.8 109.2 49.4 44.1 70.1 39.1 115.4 34.5 45.3-4.7 83.1 14.2 83.1 14.2s.1-12.5-79.4-63.2z" />
      <path
        d="M885.2 451.8s4.3 13.7 11.5 31.4c-1.4 1-3.4 2.7-5.4 5.1-3.5 4.2-11.5 18.1-14.8 29.5s-3.8 36-3.8 36 1.6-14.8 7.4-36.7c5.7-21.9 17.9-30.9 17.9-30.9 8.1 19.4 19.4 42.9 32.4 58.8-2.8 13.5-11.6 57.9-10.6 67.8 1.2 11.8 11.1 24.8 11.1 24.8s-2.1-4.3-6-14.6-2.7-22.9.9-39.7c3.5-16.8 8.4-33.8 8.4-33.8 15.1 17.3 32.9 33.1 52.3 47.2-1 8.4-4.1 39.2 4.4 52 9.9 15 17.4 20.2 17.4 20.2s-12.5-9.6-16.4-28.6c-3.9-19-1.4-40.7-1.4-40.7 12.8 9 26.1 17.2 39.7 24.5 1.7.9 3.4 1.9 5.1 2.8 1.5 4 4.4 11.5 6.8 16.2 3.4 6.6 29.4 26.1 29.4 26.1s-19.6-19.9-24.7-25.9c-3.4-4.1-5.5-10.1-6.5-13.5 34.4 20.2 69 48 69 48s-43-39.6-71.5-54.6c-6.6-3.5-12.7-7-18.5-10.4 8.2.5 24.9 2 41.9 6 23.8 5.6 32.9 11.3 32.9 11.3s-6.5-7.1-33-14.2c-19.4-5.2-38.1-6.1-46.8-6.2-26-16.4-43.5-32.8-57.2-46.3 9-1.4 48.9-7.3 57.1-5.7 9.3 1.8 31 14.9 37.5 17.1 6.5 2.2 20.6 4.5 20.6 4.5s-14.4-3.7-24.4-9.5c-10-5.8-15-12.8-32.9-16.2-15.8-3-52.7 4.9-61 6.8-5.1-5.1-9.7-9.7-14.1-13.8-7.7-7.2-17.4-23.6-26.3-40.9 4.1-1.5 13.5-4.1 29-3.7 21.7.4 41.3 8.8 52.3 16.4 11 7.7 13.3 10.8 13.3 10.8s-4.4-9.3-21.5-18.9c-17.1-9.7-41.4-12.7-52.1-12.9-7.9-.2-18.8 1.7-23.9 2.8-12.2-24.3-22.1-48.4-22.1-48.4h-3.4z"
        class="st3" />
      <linearGradient id="SVGID_5_" x1="-2401.469" x2="-2394.58" y1="2963.74" y2="2888.325"
        gradientTransform="rotate(-75.7 -2527.618 -140.363)" gradientUnits="userSpaceOnUse">
        <stop offset="0" stop-color="#39b54a" />
        <stop offset="1" stop-color="#009444" />
      </linearGradient>
      <path fill="url(#SVGID_5_)"
        d="M428.7 616.9s6.4-33.7-7.3-68.1c-13.7-34.4-22.2-49.4 1.4-97.9s35.4-66.2 72.3-70.2c37-4 67.9-.1 67.9-.1s13.9 37.8-9 97-32.8 47.2-41.3 91.6c-6.1 32.1-84 47.7-84 47.7z" />
      <linearGradient id="SVGID_6_" x1="-2385.783" x2="-2394.485" y1="2871.136" y2="2917.908"
        gradientTransform="rotate(-75.7 -2527.618 -140.363)" gradientUnits="userSpaceOnUse">
        <stop offset="0" stop-color="#39b54a" />
        <stop offset="1" stop-color="#009444" />
      </linearGradient>
      <path fill="url(#SVGID_6_)"
        d="M460.5 540.8c22-73.4 36.1-93.9 50.4-112.5 11.8-15.3 42.8-37.5 52.8-45.8-.4-1.3-.6-1.9-.6-1.9s-31-4-67.9.1c-37 4-48.8 21.8-72.3 70.2s-15.1 63.5-1.4 97.9c13.7 34.4 7.3 68.1 7.3 68.1s9.7-2.6 31.7-76.1z" />
      <path
        d="M563.1 380.6s-9.7 6.4-22 15.9c-1.1-.8-2.9-2-5.2-3.1-4-1.8-16.7-5-26.3-5.1-9.7-.1-29 5-29 5s11.9-2 30.4-2.4c18.4-.4 28.1 7.2 28.1 7.2-13.4 10.6-29.3 24.7-38.8 38.3-11.2.8-47.8 3.7-55.4 6.7-8.9 3.5-16.9 14.2-16.9 14.2s2.9-2.6 10.1-7.9c7.1-5.3 17.4-7.2 31.3-8.1 13.9-.9 28.3-.9 28.3-.9-10.2 15.6-18.6 33.1-25.3 51.4-6.8 1.1-31.5 5.5-39.7 15-9.5 11-11.9 18.1-11.9 18.1s4.7-11.9 18.7-19.2c14-7.3 31.5-10.1 31.5-10.1-4.2 12-7.7 24.2-10.4 36.5-.3 1.5-.7 3.1-1.1 4.6-2.8 2.1-8.1 6-11.2 8.9-4.4 4.1-13.9 28.8-13.9 28.8s11.2-19.8 14.8-25c2.5-3.6 6.7-6.6 9.1-8.1-8.1 31.3-22.2 64.6-22.2 64.6s21.5-42.4 26.8-68c1.2-5.9 2.6-11.5 4.1-16.8 1.4 6.5 4 20 4.6 34.1.9 19.9-1.6 28.2-1.6 28.2s4.1-6.6 3.8-29c-.2-16.3-3.7-31.2-5.6-38 7.1-24 16-41.3 23.5-55 3.1 6.7 16.5 36.6 17.1 43.4.7 7.7-4.8 27.6-5.1 33.1-.3 5.5 1.1 17.1 1.1 17.1s-.3-12 2-21.2c2.3-9.1 6.7-14.6 5.4-29.3-1.1-13-15.5-40.1-18.8-46.2 2.9-5.1 5.5-9.8 7.7-14.1 3.9-7.6 14.6-18.9 26.1-29.6 2.1 2.9 6.2 9.6 9.3 21.8 4.4 17 2.3 34.3-1.3 44.6-3.6 10.3-5.5 12.8-5.5 12.8s6.3-5.5 10-21c3.8-15.5.7-35.2-1.4-43.6-1.6-6.3-5.5-14.3-7.5-18.1 16.3-14.9 32.9-28 32.9-28l-.6-2.5z"
        class="st3" />
      <g>
        <linearGradient id="SVGID_7_" x1="-638.131" x2="-632.01" y1="1513.474" y2="1446.459"
          gradientTransform="scale(1 -1) rotate(-67.114 -1226.833 -505.213)" gradientUnits="userSpaceOnUse">
          <stop offset="0" stop-color="#39b54a" />
          <stop offset="1" stop-color="#009444" />
        </linearGradient>
        <path fill="url(#SVGID_7_)"
          d="M774.9 184s9.3 26.7 2.4 56.4-12 43 13.2 79.6 37 49.6 67.6 48.4 55.4-8.3 55.4-8.3-14.3-25.9-19.3-78c-5-52.3-22.4-41.5-45-69.6-16.8-21-74.3-28.5-74.3-28.5z" />
        <linearGradient id="SVGID_8_" x1="-624.599" x2="-631.773" y1="1430.564" y2="1469.124"
          gradientTransform="scale(1 -1) rotate(-67.114 -1226.833 -505.213)" gradientUnits="userSpaceOnUse">
          <stop offset="0" stop-color="#39b54a" />
          <stop offset="1" stop-color="#009444" />
        </linearGradient>
        <path fill="url(#SVGID_8_)"
          d="M810.1 242.1c27 57.2 41 72.1 54.9 85.5 11.5 11 39.5 25.3 48.7 30.8-.1 1.1-.3 1.6-.3 1.6s-24.8 7-55.4 8.3-42.4-11.8-67.6-48.4-20.1-49.9-13.2-79.6c6.9-29.7-2.4-56.4-2.4-56.4s8.4 1 35.3 58.2z" />
        <path
          d="M913.5 360.1s-8.7-4-19.9-10.3c-.8.8-2.1 2-3.9 3.1-3.1 1.9-13 6.1-20.9 7.4s-24.3-.5-24.3-.5 10 .2 25-1.8 22-9.3 22-9.3c-12.2-7-26.9-16.5-36.3-26.5-9.2.7-39.5 2.8-46 1.4-7.7-1.8-15.5-9.5-15.5-9.5s2.7 1.8 9.2 5.2 15 3.7 26.5 2.8c11.4-.9 23.2-2.8 23.2-2.8-10.2-11.5-19.2-24.7-27-38.8-5.7 0-26.4-.6-34.2-7.3-9.1-7.8-11.9-13.3-11.9-13.3s5.3 9.1 17.6 13.3c12.3 4.2 27 4.4 27 4.4-4.9-9.2-9.2-18.8-13-28.5-.5-1.2-.9-2.4-1.4-3.6-2.6-1.3-7.3-3.9-10.2-5.9-4.1-2.8-14.9-21.8-14.9-21.8s11.6 14.7 15.1 18.6c2.4 2.6 6.3 4.5 8.4 5.5-10.5-24.5-26.1-50-26.1-50s22.7 32 30.2 52.1c1.7 4.7 3.5 9 5.4 13.2.3-5.5.8-16.8-.4-28.4-1.7-16.3-4.8-22.8-4.8-22.8s4.2 4.9 6.7 23.1c1.8 13.3.8 25.9.1 31.7 8.7 18.7 18.1 31.7 26 41.9 1.7-5.8 9-31.9 8.6-37.5-.4-6.3-7.3-21.9-8.2-26.4-.9-4.5-1.2-14.1-1.2-14.1s1.2 9.9 4.3 17c3 7.2 7.3 11 8 23.2.7 10.8-7.7 34.6-9.7 40 3 3.8 5.7 7.3 8 10.5 4.1 5.8 14.2 13.6 24.9 20.9 1.3-2.6 3.8-8.6 4.9-19 1.5-14.4-2.3-28.2-6.5-36.2-4.2-8-6.1-9.8-6.1-9.8s5.8 3.7 10.8 15.9c5 12.2 4.9 28.6 4.2 35.7-.5 5.3-2.8 12.4-3.8 15.7 15.2 10.2 30.3 18.8 30.3 18.8l-.2 2.7z"
          class="st3" />
      </g>
      <g>
        <linearGradient id="SVGID_9_" x1="-791.635" x2="-785.514" y1="1096.886" y2="1029.871"
          gradientTransform="scale(1 -1) rotate(-67.114 -1226.833 -505.213)" gradientUnits="userSpaceOnUse">
          <stop offset="0" stop-color="#39b54a" />
          <stop offset="1" stop-color="#009444" />
        </linearGradient>
        <path fill="url(#SVGID_9_)"
          d="M331.4 204.6s9.3 26.7 2.4 56.4-12 43 13.2 79.6c25.2 36.6 37 49.6 67.6 48.4s55.4-8.3 55.4-8.3-14.3-25.9-19.3-78c-5-52.3-22.4-41.5-45-69.6-16.8-21-74.3-28.5-74.3-28.5z" />
        <linearGradient id="SVGID_10_" x1="-778.103" x2="-785.277" y1="1013.976" y2="1052.536"
          gradientTransform="scale(1 -1) rotate(-67.114 -1226.833 -505.213)" gradientUnits="userSpaceOnUse">
          <stop offset="0" stop-color="#39b54a" />
          <stop offset="1" stop-color="#009444" />
        </linearGradient>
        <path fill="url(#SVGID_10_)"
          d="M366.7 262.7c27 57.2 41 72.1 54.9 85.5 11.5 11 39.5 25.3 48.7 30.8-.1 1.1-.3 1.6-.3 1.6s-24.8 7-55.4 8.3-42.4-11.8-67.6-48.4c-25.2-36.6-20.1-49.9-13.2-79.6 6.9-29.7-2.4-56.4-2.4-56.4s8.3 1 35.3 58.2z" />
        <path
          d="M470 380.6s-8.7-4-19.9-10.3c-.8.8-2.1 2-3.9 3.1-3.1 1.9-13 6.1-20.9 7.4s-24.3-.5-24.3-.5 10 .2 25-1.8c15.1-2 22-9.3 22-9.3-12.2-7-26.9-16.5-36.3-26.5-9.2.7-39.5 2.8-46 1.4-7.7-1.8-15.5-9.5-15.5-9.5s2.7 1.8 9.2 5.2c6.5 3.4 15 3.7 26.5 2.8 11.4-.9 23.2-2.8 23.2-2.8-10.2-11.5-19.2-24.7-27-38.8-5.7 0-26.4-.6-34.2-7.3-9.1-7.8-11.9-13.3-11.9-13.3s5.3 9.1 17.6 13.3c12.3 4.2 27 4.4 27 4.4-4.9-9.2-9.2-18.8-13-28.5-.5-1.2-.9-2.4-1.4-3.6-2.6-1.3-7.3-3.9-10.2-5.9-4.1-2.8-14.9-21.8-14.9-21.8s11.6 14.7 15.1 18.6c2.4 2.6 6.3 4.5 8.4 5.5-10.5-24.5-26.1-50-26.1-50s22.7 32 30.2 52.1c1.7 4.7 3.5 9 5.4 13.2.3-5.5.8-16.8-.4-28.4-1.7-16.3-4.8-22.8-4.8-22.8s4.2 4.9 6.7 23.1c1.8 13.3.8 25.9.1 31.7 8.7 18.7 18.1 31.7 26 41.9 1.7-5.8 9-31.9 8.6-37.5-.4-6.3-7.3-21.9-8.2-26.4-.9-4.5-1.2-14.1-1.2-14.1s1.2 9.9 4.3 17c3 7.2 7.3 11 8 23.2.7 10.8-7.7 34.6-9.7 40 3 3.8 5.7 7.3 8 10.5 4.1 5.8 14.2 13.6 24.9 20.9 1.3-2.6 3.8-8.6 4.9-19 1.5-14.4-2.3-28.2-6.5-36.2-4.2-8-6.1-9.8-6.1-9.8s5.8 3.7 10.8 15.9c5 12.2 4.9 28.6 4.2 35.7-.5 5.3-2.8 12.4-3.8 15.7 15.2 10.2 30.3 18.8 30.3 18.8l-.2 2.7z"
          class="st3" />
      </g>
      <g>
        <linearGradient id="SVGID_11_" x1="-2736.942" x2="-2729.57" y1="2070.821" y2="1990.119"
          gradientTransform="scale(-1 1) rotate(75.173 -651.786 2600.832)" gradientUnits="userSpaceOnUse">
          <stop offset="0" stop-color="#39b54a" />
          <stop offset="1" stop-color="#009444" />
        </linearGradient>
        <path fill="url(#SVGID_11_)"
          d="M647.9 310.4s-10.8 32.3-39.3 55.5c-28.5 23.2-43.1 32.1-46.1 85.5s-1.3 74.5 28.8 95.9c30.1 21.4 58.9 32.9 58.9 32.9s5.5-35.1 39.1-88.5c33.7-53.5 9.3-56 8.4-99.4-.5-32.3-49.8-81.9-49.8-81.9z" />
        <linearGradient id="SVGID_12_" x1="-2720.646" x2="-2729.286" y1="1970.976" y2="2017.413"
          gradientTransform="scale(-1 1) rotate(75.173 -651.786 2600.832)" gradientUnits="userSpaceOnUse">
          <stop offset="0" stop-color="#39b54a" />
          <stop offset="1" stop-color="#009444" />
        </linearGradient>
        <path fill="url(#SVGID_12_)"
          d="M638.7 391.7c-16.4 74.3-14.1 98.9-10.7 121.9 2.8 19 19 53.2 23.7 65.2l-1.4 1.4s-28.8-11.5-58.9-32.9c-30.1-21.4-31.8-42.5-28.8-95.9 3-53.4 17.6-62.4 46.1-85.5 28.5-23.2 39.3-55.5 39.3-55.5s7.1 7-9.3 81.3z" />
        <path
          d="M650.2 580.2s-5.4-10.2-11.4-24.5c-1.4.2-3.5.4-6 .1-4.4-.4-16.9-3.7-25.3-8.3-8.4-4.6-22.8-18.3-22.8-18.3s9.4 7.5 25.2 16.7 27.8 7.4 27.8 7.4c-6.5-15.7-13.5-35.5-15.1-52-9.3-6.1-39.7-26.4-44.8-32.6-6.1-7.4-7.8-20.5-7.8-20.5s1.3 3.7 4.9 11.7c3.6 8 11.6 14.6 23.2 22.1 11.6 7.5 24.1 14.5 24.1 14.5-1.3-18.5-.1-37.7 2.9-56.8-5.4-4.2-24.7-20-27.2-32.2-2.9-14.2-1.6-21.5-1.6-21.5s-1.7 12.6 7 25.7c8.6 13.1 22.5 24 22.5 24 2.1-12.4 5.1-24.7 8.6-36.7.4-1.5.9-3 1.3-4.5-1.4-3.2-4.1-9.1-5.4-13.1-1.8-5.7 1.9-31.7 1.9-31.7s.2 22.6.7 28.9c.4 4.3 2.6 8.9 4 11.4 8.1-31.1 12-66.8 12-66.8s-1.9 47.2-9.6 71.9c-1.8 5.7-3.3 11.2-4.6 16.5 4.4-5 13.1-15.4 20.5-27.4 10.4-16.8 12.3-25.2 12.3-25.2s.4 7.7-10.7 27c-8.1 14.1-18.3 25.3-23.2 30.3-5.4 24.2-6.1 43.5-6.2 59.1 5.9-4.3 32-23.8 35.8-29.4 4.3-6.3 9.2-26.2 11.6-31.2 2.4-4.9 9.2-14.3 9.2-14.3s-6.1 10.3-8.5 19.4c-2.4 9-1.2 15.9-9.5 28-7.3 10.8-32.9 27.3-38.7 31 0 5.8 0 11.1-.2 15.9-.3 8.5 3.6 23.4 8.3 38.3 3.2-1.5 10-5.4 18.7-14.4 12.1-12.6 18.6-28.6 20.4-39.3 1.9-10.7 1.4-13.8 1.4-13.8s2.8 7.8-1.5 23.1c-4.2 15.3-16.4 30.9-22.3 37.1-4.4 4.7-11.7 9.8-15.2 12.1 7 20.8 15 40.2 15 40.2l-1.7 2.1z"
          class="st3" />
      </g>
      <g>
        <linearGradient id="SVGID_13_" x1="-5936.349" x2="-5927.054" y1="-4185.833" y2="-4287.597"
          gradientTransform="scale(-1 1) rotate(-53.323 1486.025 -6863.695)" gradientUnits="userSpaceOnUse">
          <stop offset="0" stop-color="#39b54a" />
          <stop offset="1" stop-color="#009444" />
        </linearGradient>
        <path fill="url(#SVGID_13_)"
          d="M956.1 771.1s-23.2-35.7-23.7-81.5 2.1-67.1-47.7-111.5-71.8-59.1-116-46.4c-44.3 12.8-77.9 32-77.9 32s30.1 32.6 56.1 106.9c26.1 74.5 44.1 61 90.6 85.5 35.6 18.9 118.6 15 118.6 15z" />
        <linearGradient id="SVGID_14_" x1="-5915.88" x2="-5926.665" y1="-4311.862" y2="-4253.898"
          gradientTransform="scale(-1 1) rotate(-53.323 1486.025 -6863.695)" gradientUnits="userSpaceOnUse">
          <stop offset="0" stop-color="#39b54a" />
          <stop offset="1" stop-color="#009444" />
        </linearGradient>
        <path fill="url(#SVGID_14_)"
          d="M883.8 698.9c-59.9-73.8-85.7-90.6-110.8-105.2-20.7-12-66.8-22.7-82.1-27.5-.2-1.6-.2-2.5-.2-2.5s33.6-19.2 77.9-32c44.3-12.8 66.2 2 116 46.4s39.3 56.8 59.1 98.1c22 46 12.4 94.9 12.4 94.9s-12.4 1.6-72.3-72.2z" />
        <path
          d="M690.7 563.7s14.2 2.7 32.8 7.9c.9-1.5 2.3-3.7 4.5-6 3.8-3.9 16.8-13.6 27.8-18.2s35.6-8 35.6-8-14.6 3.3-35.9 11.6-28.8 21.5-28.8 21.5c20.4 5.8 45.2 14.5 62.5 25.6 13.2-4.3 56.6-18.3 66.6-18.5 11.9-.2 26.1 8.3 26.1 8.3s-4.6-1.6-15.3-4.3c-10.7-2.7-23.3 0-39.6 5.4s-32.9 12.3-32.9 12.3c19 13.1 37 29.2 53.3 46.9 8.3-2 38.7-8.6 52.6-1.6 16.1 8.1 22.2 15.1 22.2 15.1s-11-11.4-30.5-13.1c-19.5-1.7-40.9 3.3-40.9 3.3 10.5 11.7 20.2 24.2 29.1 36.9 1.1 1.6 2.2 3.2 3.4 4.8 4.2 1 12.1 3.1 17 4.9 7 2.6 29.5 26.5 29.5 26.5s-22.2-17.4-28.8-21.7c-4.5-3-10.8-4.4-14.3-5 24.1 32.1 55.9 63.6 55.9 63.6s-44.6-38.5-62.8-65.2c-4.2-6.2-8.4-11.9-12.6-17.3 1.5 8.2 4.9 24.7 10.8 41.3 8.3 23.2 15.1 31.6 15.1 31.6s-7.8-5.6-18-31.4c-7.5-18.8-10.5-37.5-11.6-46.2-19.4-24.1-37.8-39.8-52.9-51.9-.3 9.1-1.7 49.8.9 57.8 2.8 9.1 18.5 29.4 21.4 35.6 2.9 6.2 6.9 20.1 6.9 20.1s-5.3-13.9-12.3-23.3c-7-9.4-14.6-13.5-20-31-4.8-15.5-1.1-53.3-.2-61.9-5.7-4.5-10.9-8.6-15.4-12.5-8.1-6.9-25.6-14.7-43.9-21.6-1 4.2-2.5 13.9-.4 29.4 2.9 21.6 13.5 40.3 22.5 50.5 9 10.1 12.4 12.1 12.4 12.1s-9.8-3.4-21.4-19.3c-11.6-16-17.4-40-18.9-50.6-1.1-7.9-.4-19.1 0-24.2-25.8-9.4-51-16.6-51-16.6l-.5-3.6z"
          class="st3" />
      </g>
      <g>
        <linearGradient id="SVGID_15_" x1="-6272.343" x2="-6265.185" y1="-703.209" y2="-781.56"
          gradientTransform="scale(-1 1) rotate(12.738 -8753.247 23173.869)" gradientUnits="userSpaceOnUse">
          <stop offset="0" stop-color="#39b54a" />
          <stop offset="1" stop-color="#009444" />
        </linearGradient>
        <path fill="url(#SVGID_15_)"
          d="M1175.5 347.7s-32.3 5.2-64.8-8.8c-32.4-14-46.6-22.5-93.4-1.2-46.8 21.2-64 32-68.9 67.2-4.8 35.1-1.8 64.8-1.8 64.8s32.4-11 92.8-6.1c60.6 4.9 56.7-12 88.5-37 24.4-19.3 47.6-78.9 47.6-78.9z" />
        <linearGradient id="SVGID_16_" x1="-6256.583" x2="-6264.886" y1="-800.243" y2="-755.615"
          gradientTransform="scale(-1 1) rotate(12.738 -8753.247 23173.869)" gradientUnits="userSpaceOnUse">
          <stop offset="0" stop-color="#39b54a" />
          <stop offset="1" stop-color="#009444" />
        </linearGradient>
        <path fill="url(#SVGID_16_)"
          d="M1102.1 376c-70.6 19.1-90.5 32-108.6 45.1-14.9 10.8-36.9 39.9-45 49.2l-1.8-.6s-3-29.7 1.8-64.8c4.8-35.1 22.1-46 68.9-67.2 46.8-21.2 52.2-9.9 87.5-10.9 39.2-1.1 70.6 20.9 70.6 20.9s-2.8 9.2-73.4 28.3z" />
        <path
          d="M946.7 469.6s6.3-9.1 15.8-20.6c-.8-1.1-1.9-2.8-2.8-5-1.6-3.9-4.3-16-4.1-25.3.2-9.2 5.5-27.5 5.5-27.5s-2.2 11.3-3.1 28.9 6.1 27 6.1 27c10.5-12.5 24.3-27.3 37.6-36 1.1-10.6 4.8-45.5 7.8-52.7 3.6-8.4 14-15.8 14-15.8s-2.6 2.7-7.8 9.4c-5.2 6.7-7.3 16.4-8.6 29.6-1.3 13.2-1.6 27-1.6 27 15.2-9.3 32.1-16.9 49.7-22.8 1.2-6.5 6.1-29.9 15.3-37.5 10.8-8.8 17.6-10.9 17.6-10.9s-11.5 4.2-18.8 17.4c-7.3 13.2-10.5 29.8-10.5 29.8 11.5-3.7 23.3-6.7 35.1-9 1.5-.3 2.9-.6 4.4-.9 2-2.6 5.9-7.5 8.8-10.4 4-4.1 27.9-12.5 27.9-12.5s-19.2 10.2-24.3 13.5c-3.5 2.3-6.5 6.2-8 8.5 30.1-7 62.2-19.5 62.2-19.5s-41 19.4-65.5 23.8c-5.7 1-11 2.2-16.1 3.4 6.2 1.5 18.9 4.3 32.4 5.3 18.9 1.4 27-.8 27-.8s-6.4 3.8-27.7 2.9c-15.6-.6-29.6-4.3-36.1-6.3-23 6.1-39.8 14.2-53.1 21 6.3 3.1 34.5 16.7 40.9 17.5 7.3.8 26.4-3.8 31.7-4 5.3-.1 16.3 1.5 16.3 1.5s-11.5-.6-20.3 1.4-14.1 6-28.1 4.4c-12.4-1.4-37.9-15.9-43.6-19.2-5 2.6-9.5 5-13.6 6.9-7.4 3.5-18.4 13.4-28.9 24.1 2.7 2 9 6.1 20.6 9.5 16.1 4.7 32.6 3.1 42.6 0s12.4-4.9 12.4-4.9-5.4 5.8-20.3 9-33.6-.2-41.5-2.5c-5.9-1.7-13.5-5.7-17.1-7.6-14.7 15.2-27.6 30.7-27.6 30.7l-2.6-.8z"
          class="st3" />
      </g>
      <g>
        <linearGradient id="SVGID_17_" x1="1605.096" x2="1612.253" y1="-1715.968" y2="-1794.32"
          gradientTransform="matrix(.9984 .05624 -.05624 .9984 -1355.241 2030.363)" gradientUnits="userSpaceOnUse">
          <stop offset="0" stop-color="#39b54a" />
          <stop offset="1" stop-color="#009444" />
        </linearGradient>
        <path fill="url(#SVGID_17_)"
          d="M224.5 342.1s32.8-.2 62.4-19.4c29.7-19.1 42.2-29.8 91.9-16.7 49.7 13.2 68.5 21 79 54.9s12.5 63.6 12.5 63.6-33.7-5.5-92.5 9.3c-58.9 14.8-57.9-2.4-93.4-21.9-27.2-14.8-59.9-69.8-59.9-69.8z" />
        <linearGradient id="SVGID_18_" x1="1620.855" x2="1612.553" y1="-1813.003" y2="-1768.374"
          gradientTransform="matrix(.9984 .05624 -.05624 .9984 -1355.241 2030.363)" gradientUnits="userSpaceOnUse">
          <stop offset="0" stop-color="#39b54a" />
          <stop offset="1" stop-color="#009444" />
        </linearGradient>
        <path fill="url(#SVGID_18_)"
          d="M301.5 357.9c72.8 7.1 94.6 16.6 114.6 26.6 16.5 8.2 43 33.2 52.5 41 1.1-.6 1.7-.9 1.7-.9s-2-29.7-12.5-63.6-29.4-41.7-79-54.9c-49.7-13.2-53.1-1.1-88.1 3.7-38.9 5.4-66.2 32.3-66.2 32.3s4.2 8.6 77 15.8z" />
        <path
          d="M470.3 424.6s-7.7-8-19-17.7c.6-1.2 1.4-3.1 1.9-5.4.9-4.1 1.6-16.5-.1-25.6-1.7-9.1-10-26.3-10-26.3s4.1 10.8 7.8 28-1.6 27.6-1.6 27.6c-12.4-10.6-28.5-22.9-43-29.3-2.8-10.3-12.3-44.1-16.4-50.6-4.9-7.7-16.4-13.2-16.4-13.2s3 2.2 9.3 8c6.3 5.7 9.9 14.9 13.3 27.8s6 26.3 6 26.3c-16.5-6.7-34.4-11.4-52.8-14.3-2.3-6.2-10.9-28.5-21.3-34.4-12.1-6.9-19.1-7.8-19.1-7.8s12 2.2 21.4 14 15.3 27.7 15.3 27.7c-12-1.7-24.1-2.7-36.1-3-1.5 0-3-.1-4.5-.2-2.5-2.3-7.1-6.4-10.4-8.8-4.7-3.4-29.5-7.7-29.5-7.7s20.6 6.9 26.2 9.3c3.8 1.6 7.4 5.1 9.3 7-30.8-1.9-64.6-8.9-64.6-8.9s43.7 12.3 68.6 12.7c5.8.1 11.2.3 16.4.7-5.9 2.5-18 7.4-31.1 10.6-18.4 4.5-26.7 3.7-26.7 3.7s7 2.6 27.8-1.7c15.3-3.2 28.5-9.2 34.6-12.2 23.7 2.3 41.6 7.4 55.8 12-5.7 4.1-31.3 22.2-37.5 24-7 2-26.7.6-32 1.3s-15.8 4.1-15.8 4.1 11.2-2.5 20.2-2 14.9 3.6 28.4-.3c12-3.5 34.7-21.9 39.8-26.1 5.3 1.7 10.2 3.3 14.6 4.6 7.9 2.2 20.4 10.2 32.5 19-2.3 2.5-7.9 7.5-18.7 12.8-15.1 7.3-31.7 8.4-42 7-10.3-1.4-13-2.8-13-2.8s6.3 4.9 21.5 5.5c15.2.7 33.1-5.8 40.5-9.3 5.6-2.7 12.4-7.8 15.6-10.3 17 12.6 32.3 25.7 32.3 25.7l2.5-1.5z"
          class="st3" />
      </g>
      <g>
        <linearGradient id="SVGID_19_" x1="571.064" x2="587.394" y1="670.332" y2="692.601" gradientUnits="userSpaceOnUse">
          <stop offset="0" stop-color="#39b54a" />
          <stop offset="1" stop-color="#009444" />
        </linearGradient>
        <path fill="url(#SVGID_19_)"
          d="M459.8 737.1s16.3-28.4 14.7-63.7c-1.6-35.3-4.5-51.5 31.9-87.8S559 537 593.6 545c34.6 7.9 61.3 21.2 61.3 21.2s-21.7 26.4-38.5 84.6c-16.8 58.4-31.3 48.8-65.9 69.6-26.7 16.1-90.7 16.7-90.7 16.7z" />
        <linearGradient id="SVGID_20_" x1="-599.288" x2="-607.591" y1="1265.454" y2="1310.083"
          gradientTransform="rotate(-56.536 -666.23 -93.093)" gradientUnits="userSpaceOnUse">
          <stop offset="0" stop-color="#39b54a" />
          <stop offset="1" stop-color="#009444" />
        </linearGradient>
        <path fill="url(#SVGID_20_)"
          d="M512.3 678.4c42.8-59.3 62-73.3 80.6-85.6 15.4-10.1 50.4-20.4 61.9-24.7.1-1.2.1-1.9.1-1.9s-26.7-13.3-61.3-21.2c-34.6-7.9-50.8 4.4-87.2 40.6-36.4 36.3-27.7 45.3-41.2 78-15 36.3-5.4 73.5-5.4 73.5s9.6.6 52.5-58.7z" />
        <path
          d="M654.9 566.2s-10.8 2.7-24.8 7.5c-.7-1.1-2-2.7-3.7-4.4-3.1-2.9-13.5-9.7-22.2-12.8-8.7-3.1-27.7-4.6-27.7-4.6s11.4 1.9 28.1 7.4 23.1 15.3 23.1 15.3c-15.4 5.4-34.1 13.1-47 22.4-10.3-2.8-44.3-11.6-52-11.3-9.2.4-19.7 7.5-19.7 7.5s3.4-1.5 11.5-4 17.9-1 30.7 2.5 25.8 8.1 25.8 8.1c-14.1 10.9-27.1 24-38.9 38.4-6.5-1.2-30.1-4.9-40.5 1.1-12.1 7-16.4 12.6-16.4 12.6s8-9.2 22.9-11.4c14.9-2.2 31.6.7 31.6.7-7.5 9.5-14.5 19.4-20.8 29.6-.8 1.3-1.6 2.5-2.4 3.8-3.2 1-9.1 2.9-12.9 4.5-5.3 2.3-21.6 21.6-21.6 21.6s16.3-14.3 21.2-17.9c3.3-2.5 8.1-3.8 10.7-4.4-17.2 25.7-40.3 51.3-40.3 51.3s32.6-31.5 45.5-52.9c3-4.9 6-9.5 8.9-13.8-.8 6.3-2.7 19.2-6.5 32.2-5.4 18.2-10.3 24.9-10.3 24.9s5.8-4.7 12.5-24.9c4.9-14.8 6.4-29.3 6.9-36 13.9-19.4 27.3-32.2 38.4-42.2.6 7 3.4 38.2 1.8 44.5-1.8 7.1-13 23.4-15 28.3-2 4.9-4.4 15.8-4.4 15.8s3.5-11 8.5-18.5 10.6-11 14.1-24.7c3.1-12.1-1.4-41-2.5-47.6 4.2-3.7 8-7.1 11.3-10.3 5.9-5.7 19.1-12.4 32.8-18.5 1 3.2 2.5 10.6 1.6 22.6-1.3 16.7-8.7 31.6-15.1 39.8-6.4 8.2-9 9.8-9 9.8s7.4-3 15.6-15.8 11.7-31.5 12.4-39.7c.5-6.1-.5-14.7-1.1-18.6 19.4-8.3 38.5-15 38.5-15l.4-2.9z"
          class="st3" />
      </g>
      <g>
        <linearGradient id="SVGID_21_" x1="-2285.487" x2="-2276.845" y1="1309.554" y2="1214.949"
          gradientTransform="scale(-1 1) rotate(55.083 -761.37 2352.396)" gradientUnits="userSpaceOnUse">
          <stop offset="0" stop-color="#39b54a" />
          <stop offset="1" stop-color="#009444" />
        </linearGradient>
        <path fill="url(#SVGID_21_)"
          d="M805.6 343.7s-24.6 30.9-64.9 44.8-59.8 17.8-84.3 74.8-31.1 80.7-6.8 116 51 59.3 51 59.3 19.9-36.1 77.9-80.9c58-44.9 40.9-56.8 48.8-105 6.1-36.9-21.7-109-21.7-109z" />
        <linearGradient id="SVGID_22_" x1="736.564" x2="668.767" y1="486.134" y2="465.35" gradientUnits="userSpaceOnUse">
          <stop offset="0" stop-color="#39b54a" />
          <stop offset="1" stop-color="#009444" />
        </linearGradient>
        <path fill="url(#SVGID_22_)"
          d="M763.1 428.7c-47.5 74.5-54.8 102.2-60.2 128.6-4.5 21.8-.5 65.6-.2 80.5l-2.1.9s-26.8-24-51-59.3c-24.3-35.3-17.7-59 6.8-116s38.5-51.3 69.2-80.9c34.1-32.9 80.1-38.8 80.1-38.8s4.9 10.5-42.6 85z" />
        <path
          d="M700.6 638.7s-1.8-13.3-2.7-31.2c-1.5-.3-3.9-1-6.6-2.2-4.6-2.2-16.9-10.8-24.2-19.2-7.3-8.4-17.5-29.1-17.5-29.1s7.2 11.9 20.8 28.3c13.5 16.4 27.4 19.1 27.4 19.1-.8-19.7-.5-44.1 4.3-62.7-7.7-10.4-32.7-44.5-35.8-53.4-3.7-10.4-.3-25.4-.3-25.4s-.1 4.5.7 14.7 6.8 20.5 16.4 33.4c9.6 12.8 20.5 25.4 20.5 25.4 6-20.6 14.9-41.2 25.8-60.8-4.2-6.8-18.9-31.6-16.8-45.9 2.4-16.6 6.8-24 6.8-24s-6.8 13.1-2.6 30.8c4.2 17.7 14.9 35.1 14.9 35.1 7.3-12.7 15.4-24.9 24-36.5 1.1-1.4 2.2-2.9 3.2-4.4-.3-4-.8-11.5-.6-16.4.3-6.9 14.7-33.8 14.7-33.8s-8.8 24.7-10.7 31.8c-1.3 4.9-.7 10.8-.2 14 21.2-30.7 39.7-68 39.7-68s-20.9 50.6-39.1 74.6c-4.2 5.5-8.1 10.9-11.6 16.2 6.8-3.7 20.4-11.5 33.3-21.6 18-14.2 23.4-22.6 23.4-22.6s-2.7 8.6-22.4 25.1c-14.4 12.1-30 20.2-37.3 23.7-15.6 24.2-24 45-30.3 61.9 8.1-2.4 44.4-13.1 50.7-17.7 7.2-5.2 20.5-24.9 25.1-29.4 4.6-4.4 15.7-11.9 15.7-11.9s-10.7 8.8-16.9 17.7c-6.2 8.9-7.7 16.8-21.5 26.8-12.2 8.8-46.7 16.6-54.5 18.3-2.3 6.4-4.4 12.1-6.5 17.3-3.7 9.1-5.5 26.9-6.2 45.1 4-.3 13-1.9 26.1-8.3 18.2-8.9 31.6-23.8 37.9-34.6s7-14.4 7-14.4-.1 9.6-10.8 24.6c-10.7 15-30.1 27.1-39.1 31.6-6.7 3.3-16.7 6-21.4 7.1-.7 25.5.3 49.8.3 49.8l-3.1 1.1z"
          class="st3" />
      </g>
      <g>
        <linearGradient id="SVGID_23_" x1="712.981" x2="685.268" y1="452.842" y2="538.95" gradientUnits="userSpaceOnUse">
          <stop offset="0" stop-color="#fcfdff" />
          <stop offset="1" stop-color="#cacc9b" />
        </linearGradient>
        <path fill="url(#SVGID_23_)"
          d="M629.4 561.6S647 456.8 715 445.8c0 0 25.2 32.6 24.1 67.3-1.1 34.7-19.6 65.7-19.6 65.7l-90.1-17.2z" />
        <linearGradient id="SVGID_24_" x1="-1478.324" x2="-1506.036" y1="2802.174" y2="2888.281"
          gradientTransform="rotate(-62.341 -2377.315 -21.18)" gradientUnits="userSpaceOnUse">
          <stop offset="0" stop-color="#fcfdff" />
          <stop offset="1" stop-color="#cacc9b" />
        </linearGradient>
        <path fill="url(#SVGID_24_)"
          d="M598.2 617.9s-84.6-64.3-62.8-129.6c0 0 40.6-7.2 70.8 9.9s49.1 47.9 49.1 47.9l-57.1 71.8z" />
        <linearGradient id="SVGID_25_" x1="811.435" x2="752.051" y1="569.808" y2="659.38" gradientUnits="userSpaceOnUse">
          <stop offset="0" stop-color="#fcfdff" />
          <stop offset="1" stop-color="#cacc9b" />
        </linearGradient>
        <path fill="url(#SVGID_25_)"
          d="M731.3 567.7S834.9 544 871 602.6c0 0-20.5 35.7-53 48-32.5 12.2-68.2 6.9-68.2 6.9l-18.5-89.8z" />
        <linearGradient id="SVGID_26_" x1="-4860.586" x2="-4888.299" y1="1973.153" y2="2059.261"
          gradientTransform="rotate(-131.026 -2467.08 99.144)" gradientUnits="userSpaceOnUse">
          <stop offset="0" stop-color="#fcfdff" />
          <stop offset="1" stop-color="#cacc9b" />
        </linearGradient>
        <path fill="url(#SVGID_26_)"
          d="M654.8 666.3s-90.6 55.5-143.6 11.4c0 0 8.1-40.4 35-62.4 26.9-21.9 62.4-28.3 62.4-28.3l46.2 79.3z" />
        <linearGradient id="SVGID_27_" x1="-5447.792" x2="-5475.505" y1="-928.087" y2="-841.98"
          gradientTransform="rotate(166.41 -2484.91 283.687)" gradientUnits="userSpaceOnUse">
          <stop offset="0" stop-color="#fcfdff" />
          <stop offset="1" stop-color="#cacc9b" />
        </linearGradient>
        <path fill="url(#SVGID_27_)"
          d="M735.5 639.9s7.5 106-56 132.7c0 0-32.2-25.8-39.2-59.8s3.6-68.5 3.6-68.5l91.6-4.4z" />
        <linearGradient id="SVGID_28_" x1="775.933" x2="724.466" y1="711.372" y2="610.913" gradientUnits="userSpaceOnUse">
          <stop offset="0" stop-color="#fcfdff" />
          <stop offset="1" stop-color="#cacc9b" />
        </linearGradient>
        <path fill="url(#SVGID_28_)"
          d="M708.6 705.3s20.3 17.3 56.4-4.5c36.1-21.8 45.8-61.3 41.1-74.7l-4.7-13.4h-24.5l-90.1 72.8s6.9 16.3 21.8 19.8z" />
        <linearGradient id="SVGID_29_" x1="755.943" x2="760.397" y1="643.062" y2="705.416" gradientUnits="userSpaceOnUse">
          <stop offset="0" stop-color="#fcfdff" />
          <stop offset="1" stop-color="#d1d3d4" />
        </linearGradient>
        <path fill="url(#SVGID_29_)"
          d="M708.6 705.3s20.1 22.5 67.3-12.2c47.2-34.7 27.3-75.2 27.3-75.2s.6 6-5.7 22.7-26.7 18.8-30.1 24.6 0 18.1-18.9 28.8-39.9 11.3-39.9 11.3z" />
        <linearGradient id="SVGID_30_" x1="588.308" x2="671.941" y1="481.046" y2="542.409" gradientUnits="userSpaceOnUse">
          <stop offset="0" stop-color="#fcfdff" />
          <stop offset="1" stop-color="#cacc9b" />
        </linearGradient>
        <path fill="url(#SVGID_30_)"
          d="M578.9 532.1s-4.8-24.5 14.7-39.9c19.5-15.5 39.3-24.4 39.3-24.4s25.2 2 46.5 20.3 27.7 37.1 21.3 47c-6.4 9.9-39.1 41.1-68.8 31.2s-53-34.2-53-34.2z" />
        <linearGradient id="SVGID_31_" x1="758.444" x2="712.422" y1="486.572" y2="626.126" gradientUnits="userSpaceOnUse">
          <stop offset="0" stop-color="#fcfdff" />
          <stop offset="1" stop-color="#cacc9b" />
        </linearGradient>
        <path fill="url(#SVGID_31_)"
          d="M652.1 564.8s-4.5-84.1 87.1-71.3c55.7 7.8 63.8 18.8 64.8 27.2s18.8 71.3-9.4 101-52.5 35.1-75.7 28.7c-23.2-6.5-66.8-85.6-66.8-85.6z" />
        <linearGradient id="SVGID_32_" x1="577.316" x2="675.301" y1="703.7" y2="627.614" gradientUnits="userSpaceOnUse">
          <stop offset="0" stop-color="#fcfdff" />
          <stop offset="1" stop-color="#cacc9b" />
        </linearGradient>
        <path fill="url(#SVGID_32_)"
          d="M545.7 657.3s11.4 34.6 73.2 44.5 71.5-9.9 71.5-9.9 5.7-22.3-24-43.5-39.1-26.7-40.6-27.7-78.1 12.3-80.1 36.6z" />
        <linearGradient id="SVGID_33_" x1="554.994" x2="644.565" y1="643.467" y2="492.037" gradientUnits="userSpaceOnUse">
          <stop offset="0" stop-color="#fcfdff" />
          <stop offset="1" stop-color="#cacc9b" />
        </linearGradient>
        <path fill="url(#SVGID_33_)"
          d="M551.2 557.8s-4.9-42.1 39.1-32.7c44 9.4 37.8-.5 45.1 24.2 7.3 24.7 3.8 48.5 3.8 48.5s-.8 25.7-20.9 33.2c-20.1 7.4-35.5 24.2-54.3 14.8s-20.2-74.6-12.8-88z" />
        <linearGradient id="SVGID_34_" x1="648.037" x2="717.814" y1="654.002" y2="481.787" gradientUnits="userSpaceOnUse">
          <stop offset="0" stop-color="#fcfdff" />
          <stop offset="1" stop-color="#cacc9b" />
        </linearGradient>
        <path fill="url(#SVGID_34_)"
          d="M624.4 609.7s-18.4-1-18.6-28.6 31.9-76.1 80.9-60.1c49 16 69.4 46.8 66.4 58.6s-9.6 19.3-9.6 19.3-107.9 12.6-119.1 10.8z" />
        <linearGradient id="SVGID_35_" x1="638.231" x2="723.225" y1="711.203" y2="616.188" gradientUnits="userSpaceOnUse">
          <stop offset="0" stop-color="#fcfdff" />
          <stop offset="1" stop-color="#cacc9b" />
        </linearGradient>
        <path fill="url(#SVGID_35_)"
          d="M640.1 636.4s-12 37.9 4.4 55.3c16.3 17.4 56.4 21.9 77.9-1.9 21.5-23.8 20-41.9 8.9-53.8-11.1-11.9-91.2.4-91.2.4z" />
        <linearGradient id="SVGID_36_" x1="689.275" x2="746.803" y1="649.02" y2="568.48" gradientUnits="userSpaceOnUse">
          <stop offset="0" stop-color="#fcfdff" />
          <stop offset="1" stop-color="#cacc9b" />
        </linearGradient>
        <path fill="url(#SVGID_36_)"
          d="M689.4 581.5s26.2-4.8 44 5.6 19.2 27.4 13.6 42.6-6.4 27.1-23.8 30.8-34.2-3.3-43.5-17.8c-9.3-14.5-5.9-54.2 9.7-61.2z" />
        <linearGradient id="SVGID_37_" x1="625.831" x2="676.013" y1="633.511" y2="623.847" gradientUnits="userSpaceOnUse">
          <stop offset="0" stop-color="#fcfdff" />
          <stop offset="1" stop-color="#cacc9b" />
        </linearGradient>
        <path fill="url(#SVGID_37_)"
          d="M652.1 593.8s-49.9-10-46.2 30c1.9 20.5 21.5 46.5 41.1 44.7s26.9-13.1 27.6-19.8 24.9-40.8-22.5-54.9z" />
        <linearGradient id="SVGID_38_" x1="650.002" x2="688.602" y1="628.257" y2="570.729" gradientUnits="userSpaceOnUse">
          <stop offset="0" stop-color="#fcfdff" />
          <stop offset="1" stop-color="#cacc9b" />
        </linearGradient>
        <path fill="url(#SVGID_38_)"
          d="M658.7 625.7s-29.6-23.4-18.7-39.5c16.8-24.7 52.7-16.7 60.8-5.2s-1.7 33.9-6.6 36.8c-4.7 3-35.5 7.9-35.5 7.9z" />
        <linearGradient id="SVGID_39_" x1="680.471" x2="678.71" y1="621.763" y2="662.977" gradientUnits="userSpaceOnUse">
          <stop offset="0" stop-color="#fcfdff" />
          <stop offset="1" stop-color="#d1d3d4" />
        </linearGradient>
        <path fill="url(#SVGID_39_)"
          d="M663.5 609.8s-25.3 31.1-11.4 47.4c13.9 16.3 46.8 11.5 53.7-2.2 6.9-13.7 9.9-33.8-5.6-39.5-15.5-5.6-36.7-5.7-36.7-5.7z" />
        <linearGradient id="SVGID_40_" x1="712.989" x2="601.646" y1="530.697" y2="637.246" gradientUnits="userSpaceOnUse">
          <stop offset="0" stop-color="#fcfdff" />
          <stop offset="1" stop-color="#d1d3d4" />
        </linearGradient>
        <path fill="url(#SVGID_40_)"
          d="M606.2 587.1c-1.7-7.4-2.7-59.7 50.7-68.2 48-7.6 82 18.6 96.2 55.1 0 0-4.5-19.9-42.2-24.7-37.8-4.8-41.1 2.6-52.3 1.5s-12.2-6-27.8 2.4-24.6 33.9-24.6 33.9z" />
        <linearGradient id="SVGID_41_" x1="614.323" x2="501.911" y1="528.654" y2="636.226" gradientUnits="userSpaceOnUse">
          <stop offset="0" stop-color="#fcfdff" />
          <stop offset="1" stop-color="#d1d3d4" />
        </linearGradient>
        <path fill="url(#SVGID_41_)"
          d="M625.8 531.3s-41.4-19.2-61.4-7.5-24.1 52.1-24.1 64.6 8.9 39 16.1 49.3c0 0-5.4-24.6.2-46.8 5.6-22.3 12.9-25.2 15.1-30.7 2.2-5.5 1.2-27.6 15.3-32 14.2-4.5 38.8 3.1 38.8 3.1z" />
        <linearGradient id="SVGID_42_" x1="602.581" x2="597.571" y1="679.926" y2="692.545" gradientUnits="userSpaceOnUse">
          <stop offset="0" stop-color="#fcfdff" />
          <stop offset="1" stop-color="#d1d3d4" />
        </linearGradient>
        <path fill="url(#SVGID_42_)"
          d="M545.7 657.3s11.2 2.6 25.3 14.5c14.1 11.9 23.8 3.7 29.7 6.7 5.9 3 14.1 10.4 25 14.1 11 3.7 24.1 11.7 32.9 11.8 0 0-45.1 2.8-75.7-12.9-29.3-15.1-32.6-21.6-37.2-34.2z" />
        <linearGradient id="SVGID_43_" x1="692.806" x2="695.085" y1="673.332" y2="705.245" gradientUnits="userSpaceOnUse">
          <stop offset="0" stop-color="#fcfdff" />
          <stop offset="1" stop-color="#d1d3d4" />
        </linearGradient>
        <path fill="url(#SVGID_43_)"
          d="M739.1 658.9s-13.4 22.9-28.1 26.2c-14.8 3.3-19.1-1.9-29.6 4.8-10.4 6.7-26.7 7.3-34.4 4.2 0 0 25 23.4 56 10.4 31-13.1 36.1-45.6 36.1-45.6z" />
        <linearGradient id="SVGID_44_" x1="676.25" x2="663.259" y1="577.172" y2="612.061" gradientUnits="userSpaceOnUse">
          <stop offset="0" stop-color="#fcfdff" />
          <stop offset="1" stop-color="#d1d3d4" />
        </linearGradient>
        <path fill="url(#SVGID_44_)"
          d="M640.1 603.7s-13.1-25.1 26.3-33.3 37.6 21.2 37.6 21.2-15.9-15.9-22.6-4.5c-8.2 13.8-11.5 5.7-19.4 3-18.5-6.3-21.9 13.6-21.9 13.6z" />
        <linearGradient id="SVGID_45_" x1="640.356" x2="619.943" y1="616.976" y2="647.04" gradientUnits="userSpaceOnUse">
          <stop offset="0" stop-color="#fcfdff" />
          <stop offset="1" stop-color="#d1d3d4" />
        </linearGradient>
        <path fill="url(#SVGID_45_)"
          d="M635.9 621.3s-12.7 34.4 7.7 47.3c0 0-30.8-.4-37.7-37.7-5.5-29.6 18.8-36.3 18.8-36.3s-5.5 20.3 11.2 26.7z" />
        <linearGradient id="SVGID_46_" x1="727.089" x2="723.377" y1="582.029" y2="651.434" gradientUnits="userSpaceOnUse">
          <stop offset="0" stop-color="#fcfdff" />
          <stop offset="1" stop-color="#d1d3d4" />
        </linearGradient>
        <path fill="url(#SVGID_46_)"
          d="M700.9 581.1s37.6-2.6 47 18.3c9.5 20.8-2.1 46.2-12.8 55.6 0 0-3.8-29.2-18.9-42.2-6.2-5.4.7-10.7-1.9-20-2.5-9.4-13.4-11.7-13.4-11.7z" />
      </g>
      <g>
        <linearGradient id="SVGID_47_" x1="-297.182" x2="-370.917" y1="-3515.472" y2="-3496.172"
          gradientTransform="rotate(71.24 -2502.685 -598.988)" gradientUnits="userSpaceOnUse">
          <stop offset="0" stop-color="#fcfdff" />
          <stop offset="1" stop-color="#cacc9b" />
        </linearGradient>
        <path fill="url(#SVGID_47_)"
          d="M897.3 479.6s11.5 57.9 55.3 97.8c0 0 24.6-46.6 21.4-72.7-3.1-25.9-76.7-25.1-76.7-25.1z" />
        <linearGradient id="SVGID_48_" x1="-472.308" x2="-423.811" y1="-3398.756" y2="-3467.543"
          gradientTransform="rotate(71.24 -2502.685 -598.988)" gradientUnits="userSpaceOnUse">
          <stop offset="0" stop-color="#fcfdff" />
          <stop offset="1" stop-color="#cacc9b" />
        </linearGradient>
        <path fill="url(#SVGID_48_)"
          d="M875.7 400.3s-62.1-7.7-97.7 36.8c0 0 43 46.6 79.6 45.1 36.6-1.5 52.5-17.8 52.5-17.8l-34.4-64.1z" />
        <linearGradient id="SVGID_49_" x1="-571.867" x2="-501.596" y1="-3520.666" y2="-3477.612"
          gradientTransform="rotate(71.24 -2502.685 -598.988)" gradientUnits="userSpaceOnUse">
          <stop offset="0" stop-color="#fcfdff" />
          <stop offset="1" stop-color="#cacc9b" />
        </linearGradient>
        <path fill="url(#SVGID_49_)"
          d="M906.8 331.2s-23.8-30.1-42.1-33.8l-18.3-3.7s-1.9 32 16.1 57.8c18 25.8 35.8 44.8 35.8 44.8l8.5-65.1z" />
        <linearGradient id="SVGID_50_" x1="-495.029" x2="-538.025" y1="-3589.396" y2="-3524.543"
          gradientTransform="rotate(71.24 -2502.685 -598.988)" gradientUnits="userSpaceOnUse">
          <stop offset="0" stop-color="#fcfdff" />
          <stop offset="1" stop-color="#cacc9b" />
        </linearGradient>
        <path fill="url(#SVGID_50_)"
          d="M979.2 357s6.7-19.8-2.4-39.4c-9-19.7-17.9-34-17.9-34s-40.1 3-54.2 22.7c-14.1 19.7 9.5 71.1 9.5 71.1l65-20.4z" />
        <linearGradient id="SVGID_51_" x1="-553.941" x2="-446.06" y1="-3417.68" y2="-3502.55"
          gradientTransform="rotate(71.24 -2502.685 -598.988)" gradientUnits="userSpaceOnUse">
          <stop offset="0" stop-color="#fcfdff" />
          <stop offset="1" stop-color="#cacc9b" />
        </linearGradient>
        <path fill="url(#SVGID_51_)"
          d="M884.6 365.8s-8.1-23.3-25-31.7c-16.9-8.4-37.6-2.9-48.2-5l-10.7-2.1s22.8 67 39.5 88.5 45 28.4 45 28.4l-.6-78.1z" />
        <linearGradient id="SVGID_52_" x1="-307.184" x2="-373.249" y1="-3598.089" y2="-3514.95"
          gradientTransform="rotate(71.24 -2502.685 -598.988)" gradientUnits="userSpaceOnUse">
          <stop offset="0" stop-color="#fcfdff" />
          <stop offset="1" stop-color="#cacc9b" />
        </linearGradient>
        <path fill="url(#SVGID_52_)"
          d="M996.1 446.1s34.8 22.8 42 45 10.5 33.3 7.1 37.2c-3.4 3.9-32.4 23.2-40.2 23.5s-22.3.1-38-27.5c-15.6-27.6-19.2-48.4-18.4-54.1.8-5.8 47.5-24.1 47.5-24.1z" />
        <linearGradient id="SVGID_53_" x1="-333.457" x2="-463.731" y1="-3439.724" y2="-3456.797"
          gradientTransform="rotate(71.24 -2502.685 -598.988)" gradientUnits="userSpaceOnUse">
          <stop offset="0" stop-color="#fcfdff" />
          <stop offset="1" stop-color="#cacc9b" />
        </linearGradient>
        <path fill="url(#SVGID_53_)"
          d="M900.1 435.1s-49.4 2-68.9 11.4-13.5 58.3-8.6 80.9c4.9 22.6 14.2 23.4 27.7 25.1s35.6 12.6 55.3-1.1c19.6-13.7 30.5-24.5 28.7-56.4-1.8-32-34.2-59.9-34.2-59.9z" />
        <linearGradient id="SVGID_54_" x1="-373.917" x2="-416.546" y1="-3624.458" y2="-3560.159"
          gradientTransform="rotate(71.24 -2502.685 -598.988)" gradientUnits="userSpaceOnUse">
          <stop offset="0" stop-color="#fcfdff" />
          <stop offset="1" stop-color="#cacc9b" />
        </linearGradient>
        <path fill="url(#SVGID_54_)"
          d="M979.1 398.8s33-14.6 44.9-9.6c11.9 5 39.9 39.4 32.2 51.4-7.7 12-53.7 41.5-72.6 35.4s-4.5-77.2-4.5-77.2z" />
        <linearGradient id="SVGID_55_" x1="-353.909" x2="-292.707" y1="-3528.365" y2="-3564.155"
          gradientTransform="rotate(71.24 -2502.685 -598.988)" gradientUnits="userSpaceOnUse">
          <stop offset="0" stop-color="#fcfdff" />
          <stop offset="1" stop-color="#cacc9b" />
        </linearGradient>
        <path fill="url(#SVGID_55_)"
          d="M919.7 464.5s-7.9 20.5 7.2 43.2c15.2 22.7 68.6 38.6 81.4 22.1 12.8-16.5 14.3-29.9 14.3-29.9s-30.8-12.3-37.8-26c-7-13.7-65.1-9.4-65.1-9.4z" />
        <linearGradient id="SVGID_56_" x1="-509.279" x2="-484.041" y1="-3567.833" y2="-3513.397"
          gradientTransform="rotate(71.24 -2502.685 -598.988)" gradientUnits="userSpaceOnUse">
          <stop offset="0" stop-color="#fcfdff" />
          <stop offset="1" stop-color="#cacc9b" />
        </linearGradient>
        <path fill="url(#SVGID_56_)"
          d="M967.7 359.7s-1.1.9.6-13.9c2.2-18.8-30.9-53.7-43.7-47.9-36.6 16.8-48.3 38.5-34.2 84.8s26.2 50.4 26.2 50.4l51.1-73.4z" />
        <linearGradient id="SVGID_57_" x1="-431.08" x2="-470.976" y1="-3520.985" y2="-3460.808"
          gradientTransform="rotate(71.24 -2502.685 -598.988)" gradientUnits="userSpaceOnUse">
          <stop offset="0" stop-color="#fcfdff" />
          <stop offset="1" stop-color="#cacc9b" />
        </linearGradient>
        <path fill="url(#SVGID_57_)"
          d="M898.3 396.3s-4.3-49.1-20.9-51.7c0 0-21.7 63-13 91s18 37 24.9 40.9 34.1-4.1 37.7-9.3c3.6-5.1-28.7-70.9-28.7-70.9z" />
        <linearGradient id="SVGID_58_" x1="-439.056" x2="-377.349" y1="-3574.606" y2="-3599.771"
          gradientTransform="rotate(71.24 -2502.685 -598.988)" gradientUnits="userSpaceOnUse">
          <stop offset="0" stop-color="#fcfdff" />
          <stop offset="1" stop-color="#cacc9b" />
        </linearGradient>
        <path fill="url(#SVGID_58_)"
          d="M1032.9 368.7s-2.2 53.1-18.3 69.2-66 21.6-76.6 5.6c-10.5-16-16.8-66-15.6-66.4 1.2-.4 55.3-50.8 110.5-8.4z" />
        <linearGradient id="SVGID_59_" x1="-421.728" x2="-402.788" y1="-3626.138" y2="-3591.34"
          gradientTransform="rotate(71.24 -2502.685 -598.988)" gradientUnits="userSpaceOnUse">
          <stop offset="0" stop-color="#fcfdff" />
          <stop offset="1" stop-color="#d1d3d4" />
        </linearGradient>
        <path fill="url(#SVGID_59_)"
          d="M1032.9 368.7s4.3 51.9-8.4 67.7c-12.7 15.8-21.3 17.3-21.3 17.3s12.6-22 11.4-55.6c-.3-10.9 18.3-29.4 18.3-29.4z" />
        <linearGradient id="SVGID_60_" x1="-409.725" x2="-355.908" y1="-3553.567" y2="-3516.08"
          gradientTransform="rotate(71.24 -2502.685 -598.988)" gradientUnits="userSpaceOnUse">
          <stop offset="0" stop-color="#fcfdff" />
          <stop offset="1" stop-color="#cacc9b" />
        </linearGradient>
        <path fill="url(#SVGID_60_)"
          d="M1010 447.7s-45.6 10-67.2-3.8C921.2 430 921 436 921 436s-4.1 32.2 6.8 39.6c10.9 7.4 25.3 4.7 29.5 4.1 4.2-.6 52.7-32 52.7-32z" />
        <linearGradient id="SVGID_61_" x1="-363.593" x2="-414.399" y1="-3599.325" y2="-3522.692"
          gradientTransform="rotate(71.24 -2502.685 -598.988)" gradientUnits="userSpaceOnUse">
          <stop offset="0" stop-color="#fcfdff" />
          <stop offset="1" stop-color="#d1d3d4" />
        </linearGradient>
        <path fill="url(#SVGID_61_)"
          d="M1046.6 422.7s-20-6.9-34.3 1.8c-14.3 8.8-23.1 29-40.6 36.1-17.6 7.1-25.9 19.4-43.9 14.9 0 0 5.6 11.8 36.2 9.7 30.6-2.1 77.2-18.3 82.6-62.5z" />
        <linearGradient id="SVGID_62_" x1="-468.13" x2="-518.51" y1="-3613.464" y2="-3537.474"
          gradientTransform="rotate(71.24 -2502.685 -598.988)" gradientUnits="userSpaceOnUse">
          <stop offset="0" stop-color="#fcfdff" />
          <stop offset="1" stop-color="#d1d3d4" />
        </linearGradient>
        <path fill="url(#SVGID_62_)"
          d="M1008.2 342.1l8.3 16.4s-35.7 2.3-58.9-2.7c-23.3-5-43.9-4.2-43.9-4.2s19.9-13.3 47.5-16.1c27.7-2.9 47 6.6 47 6.6z" />
        <linearGradient id="SVGID_63_" x1="-424.702" x2="-466.958" y1="-3554.834" y2="-3491.098"
          gradientTransform="rotate(71.24 -2502.685 -598.988)" gradientUnits="userSpaceOnUse">
          <stop offset="0" stop-color="#fcfdff" />
          <stop offset="1" stop-color="#d1d3d4" />
        </linearGradient>
        <path fill="url(#SVGID_63_)"
          d="M895.5 380.7s4.3-23 25.4-33.7c21.1-10.7 46.7 11.6 53.1 13.3 6.5 1.7 12 3 12 3s-7 19.6-8.7 36.7c-1.7 17-14.2 46-25.3 58.4s-24.3 17.3-24.3 17.3-27.9-11.7-31.3-50.5c-3.3-38.9-.9-44.5-.9-44.5z" />
        <linearGradient id="SVGID_64_" x1="-448.538" x2="-475.534" y1="-3494.686" y2="-3453.966"
          gradientTransform="rotate(71.24 -2502.685 -598.988)" gradientUnits="userSpaceOnUse">
          <stop offset="0" stop-color="#fcfdff" />
          <stop offset="1" stop-color="#d1d3d4" />
        </linearGradient>
        <path fill="url(#SVGID_64_)"
          d="M877.4 344.6s9.3 9.8 12.2 26c2.9 16.2.2 16.4-3 23-3.2 6.6-11.9 13.5-14.4 32.6-2.6 19 8.6 47.4 17.1 50.4 0 0-26.3-3.6-34.3-34.2s8-92.9 22.4-97.8z" />
        <linearGradient id="SVGID_65_" x1="-314.262" x2="-356.521" y1="-3570.724" y2="-3506.983"
          gradientTransform="rotate(71.24 -2502.685 -598.988)" gradientUnits="userSpaceOnUse">
          <stop offset="0" stop-color="#fcfdff" />
          <stop offset="1" stop-color="#d1d3d4" />
        </linearGradient>
        <path fill="url(#SVGID_65_)"
          d="M1023.7 487.9s10.8 32.3-14 46.5c-35.3 20.2-73.5-16.8-73.5-16.8s35 20 49.2 9.7c14.1-10.3 10-10.8 17.5-22.4 7.4-11.4 20.8-17 20.8-17z" />
        <linearGradient id="SVGID_66_" x1="-513.652" x2="-514.641" y1="-3442.108" y2="-3416.127"
          gradientTransform="rotate(71.24 -2502.685 -598.988)" gradientUnits="userSpaceOnUse">
          <stop offset="0" stop-color="#fcfdff" />
          <stop offset="1" stop-color="#cacc9b" />
        </linearGradient>
        <path fill="url(#SVGID_66_)"
          d="M811.8 312.4s17.2 31.7 20.5 47.5c3.3 15.9 6.3 50.1 20.6 66.3 0 0-25.5-16.3-40.4-47.8s-15.3-54.7-.7-66z" />
      </g>
      <g>
        <linearGradient id="SVGID_67_" x1="334.131" x2="260.395" y1="2416.688" y2="2435.988"
          gradientTransform="matrix(.8749 -.3795 .3842 .8857 -564.994 -1705.953)" gradientUnits="userSpaceOnUse">
          <stop offset="0" stop-color="#fcfdff" />
          <stop offset="1" stop-color="#cacc9b" />
        </linearGradient>
        <path fill="url(#SVGID_67_)"
          d="M589.2 376s64.6 11.8 88.6-60.5c0 0-34.4-28.7-70.9-15.1-23.5 8.8-17.7 75.6-17.7 75.6z" />
        <linearGradient id="SVGID_68_" x1="156.397" x2="204.894" y1="2526.348" y2="2457.561"
          gradientTransform="matrix(.8749 -.3795 .3842 .8857 -564.994 -1705.953)" gradientUnits="userSpaceOnUse">
          <stop offset="0" stop-color="#fcfdff" />
          <stop offset="1" stop-color="#cacc9b" />
        </linearGradient>
        <path fill="url(#SVGID_68_)"
          d="M515.5 402.7s-32.6 61.1 43.1 91.1c0 0 40.8-44.8 36.4-79.8s-21.3-49.1-21.3-49.1l-58.2 37.8z" />
        <linearGradient id="SVGID_69_" x1="57.77" x2="128.042" y1="2405.096" y2="2448.15"
          gradientTransform="matrix(.8749 -.3795 .3842 .8857 -564.994 -1705.953)" gradientUnits="userSpaceOnUse">
          <stop offset="0" stop-color="#fcfdff" />
          <stop offset="1" stop-color="#cacc9b" />
        </linearGradient>
        <path fill="url(#SVGID_69_)"
          d="M447.1 378s-26.7 25.1-28.7 43l-2 17.9s30.6-.6 53.7-19.8 39.7-37.7 39.7-37.7l-62.7-3.4z" />
        <linearGradient id="SVGID_70_" x1="134.609" x2="91.613" y1="2336.366" y2="2401.219"
          gradientTransform="matrix(.8749 -.3795 .3842 .8857 -564.994 -1705.953)" gradientUnits="userSpaceOnUse">
          <stop offset="0" stop-color="#fcfdff" />
          <stop offset="1" stop-color="#cacc9b" />
        </linearGradient>
        <path fill="url(#SVGID_70_)"
          d="M465.8 306.5s-19.4-4.9-37.3 5.2-30.9 19.7-30.9 19.7 6.2 38.3 26.1 50.4c19.9 12.1 66.9-14.4 66.9-14.4l-24.8-60.9z" />
        <linearGradient id="SVGID_71_" x1="86.6" x2="182.557" y1="2498.007" y2="2422.518"
          gradientTransform="matrix(.8749 -.3795 .3842 .8857 -564.994 -1705.953)" gradientUnits="userSpaceOnUse">
          <stop offset="0" stop-color="#fcfdff" />
          <stop offset="1" stop-color="#cacc9b" />
        </linearGradient>
        <path fill="url(#SVGID_71_)"
          d="M481.9 396.7s-29.5 8.3-28.1 26.4c2.2 28.3-9.6 29.2-4.7 38.4 3.1 5.8 22.8 6.2 22.8 6.2s41.8-14.4 60.9-32c19.1-17.7 23.3-45.3 23.3-45.3l-74.2 6.3z" />
        <linearGradient id="SVGID_72_" x1="317.013" x2="256.185" y1="2333.923" y2="2410.471"
          gradientTransform="matrix(.8749 -.3795 .3842 .8857 -564.994 -1705.953)" gradientUnits="userSpaceOnUse">
          <stop offset="0" stop-color="#fcfdff" />
          <stop offset="1" stop-color="#cacc9b" />
        </linearGradient>
        <path fill="url(#SVGID_72_)"
          d="M549.1 283.7s.2-24.9 20.8-33.5c20.6-8.5 50.7-13.8 54.7-10.9s22.1 27.4 23 34.9 3.3 14.5-21.7 31.5c-25 17.1-44.5 22-50 21.7-5.5-.3-26.8-43.7-26.8-43.7z" />
        <linearGradient id="SVGID_73_" x1="296.181" x2="165.906" y1="2486.038" y2="2468.965"
          gradientTransform="matrix(.8749 -.3795 .3842 .8857 -564.994 -1705.953)" gradientUnits="userSpaceOnUse">
          <stop offset="0" stop-color="#fcfdff" />
          <stop offset="1" stop-color="#cacc9b" />
        </linearGradient>
        <path fill="url(#SVGID_73_)"
          d="M546.6 376.6s6 47.3 16.5 65.4c10.5 18.1 56.6 8.6 77.7 2.2 21.1-6.4 21.1-15.4 21.6-28.5s9.1-35.2-5.6-53c-14.7-17.8-25.8-27.5-56-23.3-30.3 4.1-54.2 37.2-54.2 37.2z" />
        <linearGradient id="SVGID_74_" x1="255.72" x2="213.091" y1="2301.304" y2="2365.603"
          gradientTransform="matrix(.8749 -.3795 .3842 .8857 -564.994 -1705.953)" gradientUnits="userSpaceOnUse">
          <stop offset="0" stop-color="#fcfdff" />
          <stop offset="1" stop-color="#cacc9b" />
        </linearGradient>
        <path fill="url(#SVGID_74_)"
          d="M505.5 303.5s-16.6-30.6-12.8-42.4 34.2-41.2 46.3-34.7c12.1 6.5 43.9 48.5 39.7 67.1-4.3 18.6-73.2 10-73.2 10z" />
        <linearGradient id="SVGID_75_" x1="273.269" x2="331.077" y1="2398.826" y2="2365.02"
          gradientTransform="matrix(.8749 -.3795 .3842 .8857 -564.994 -1705.953)" gradientUnits="userSpaceOnUse">
          <stop offset="0" stop-color="#fcfdff" />
          <stop offset="1" stop-color="#cacc9b" />
        </linearGradient>
        <path fill="url(#SVGID_75_)"
          d="M573 355.7s20.2 6.1 40.5-10.2 27.4-64.3 10.6-75.4c-16.8-11.1-26-16-26-16s-9.1 30.5-21.6 38.3-3.5 63.3-3.5 63.3z" />
        <linearGradient id="SVGID_76_" x1="120.359" x2="145.597" y1="2357.929" y2="2412.365"
          gradientTransform="matrix(.8749 -.3795 .3842 .8857 -564.994 -1705.953)" gradientUnits="userSpaceOnUse">
          <stop offset="0" stop-color="#fcfdff" />
          <stop offset="1" stop-color="#cacc9b" />
        </linearGradient>
        <path fill="url(#SVGID_76_)"
          d="M469.3 317.4s.9.9-13.3.4c-18-.7-48.6 33.7-42 45.5 19 34 40.6 43.6 83.5 26.5s45.8-28.9 45.8-28.9l-74-43.5z" />
        <linearGradient id="SVGID_77_" x1="198.557" x2="158.661" y1="2404.777" y2="2464.954"
          gradientTransform="matrix(.8749 -.3795 .3842 .8857 -564.994 -1705.953)" gradientUnits="userSpaceOnUse">
          <stop offset="0" stop-color="#fcfdff" />
          <stop offset="1" stop-color="#cacc9b" />
        </linearGradient>
        <path fill="url(#SVGID_77_)"
          d="M509.8 381.3s-46.4 7.8-47.5 23.9c0 0 61.8 16.2 87.7 5.7 25.9-10.5 33.7-20.1 36.9-27 3.2-6.9-6.8-32.5-12-35.6-5.1-2.9-65.1 33-65.1 33z" />
        <linearGradient id="SVGID_78_" x1="190.582" x2="252.289" y1="2351.156" y2="2325.99"
          gradientTransform="matrix(.8749 -.3795 .3842 .8857 -564.994 -1705.953)" gradientUnits="userSpaceOnUse">
          <stop offset="0" stop-color="#fcfdff" />
          <stop offset="1" stop-color="#cacc9b" />
        </linearGradient>
        <path fill="url(#SVGID_78_)"
          d="M472.5 254.1s50.8-1.8 67.4 12.4c16.6 14.3 26 61.8 11.7 73.1-14.4 11.3-61.5 21-62 20s-53-49.4-17.1-105.5z" />
        <linearGradient id="SVGID_79_" x1="207.909" x2="226.85" y1="2299.624" y2="2334.422"
          gradientTransform="matrix(.8749 -.3795 .3842 .8857 -564.994 -1705.953)" gradientUnits="userSpaceOnUse">
          <stop offset="0" stop-color="#fcfdff" />
          <stop offset="1" stop-color="#d1d3d4" />
        </linearGradient>
        <path fill="url(#SVGID_79_)"
          d="M472.5 254.1s49.1-8 65.1 3 18.3 19.2 18.3 19.2-21.9-10.5-53.9-6.8c-10.4 1.1-29.5-15.4-29.5-15.4z" />
        <linearGradient id="SVGID_80_" x1="219.912" x2="273.729" y1="2372.195" y2="2409.682"
          gradientTransform="matrix(.8749 -.3795 .3842 .8857 -564.994 -1705.953)" gradientUnits="userSpaceOnUse">
          <stop offset="0" stop-color="#fcfdff" />
          <stop offset="1" stop-color="#cacc9b" />
        </linearGradient>
        <path fill="url(#SVGID_80_)"
          d="M549.5 270.2s13.3 43.1 1.9 64.8c-11.4 21.7-5.7 21.6-5.7 21.6s31 1.5 37.2-9.5c6.2-11 2.4-24.7 1.5-28.6s-34.9-48.3-34.9-48.3z" />
        <linearGradient id="SVGID_81_" x1="266.045" x2="215.238" y1="2326.437" y2="2403.07"
          gradientTransform="matrix(.8749 -.3795 .3842 .8857 -564.994 -1705.953)" gradientUnits="userSpaceOnUse">
          <stop offset="0" stop-color="#fcfdff" />
          <stop offset="1" stop-color="#d1d3d4" />
        </linearGradient>
        <path fill="url(#SVGID_81_)"
          d="M522.7 236.9s-4.9 19.7 4.6 32.8 29.5 20 37.8 36.3c8.2 16.3 20.6 23.5 17.8 41.1 0 0 10.8-6.2 6.2-35.5s-23.9-72.8-66.4-74.7z" />
        <linearGradient id="SVGID_82_" x1="161.508" x2="111.128" y1="2312.298" y2="2388.288"
          gradientTransform="matrix(.8749 -.3795 .3842 .8857 -564.994 -1705.953)" gradientUnits="userSpaceOnUse">
          <stop offset="0" stop-color="#fcfdff" />
          <stop offset="1" stop-color="#d1d3d4" />
        </linearGradient>
        <path fill="url(#SVGID_82_)"
          d="M449.1 279.7l14.9-9.2s5.1 34.1 2.3 56.8c-2.9 22.7-.3 42.4-.3 42.4s-14.3-18.1-19.3-44.5c-5-26.2 2.4-45.5 2.4-45.5z" />
        <linearGradient id="SVGID_83_" x1="204.935" x2="162.68" y1="2370.929" y2="2434.664"
          gradientTransform="matrix(.8749 -.3795 .3842 .8857 -564.994 -1705.953)" gradientUnits="userSpaceOnUse">
          <stop offset="0" stop-color="#fcfdff" />
          <stop offset="1" stop-color="#d1d3d4" />
        </linearGradient>
        <path fill="url(#SVGID_83_)"
          d="M495.2 385.1s-22.3-2.4-34.2-21.9 7.2-45.7 8.3-52c1.1-6.3 1.9-11.7 1.9-11.7s19.3 5.3 35.6 5.6c16.3.3 44.9 10.2 57.6 19.9s18.4 22.1 18.4 22.1-8.8 27.7-45.5 33.8-42.1 4.2-42.1 4.2z" />
        <linearGradient id="SVGID_84_" x1="181.1" x2="154.103" y1="2431.076" y2="2471.796"
          gradientTransform="matrix(.8749 -.3795 .3842 .8857 -564.994 -1705.953)" gradientUnits="userSpaceOnUse">
          <stop offset="0" stop-color="#fcfdff" />
          <stop offset="1" stop-color="#d1d3d4" />
        </linearGradient>
        <path fill="url(#SVGID_84_)"
          d="M462.3 405.3s8.6-9.6 23.8-13.7c15.2-4 15.6-1.5 22.1 1.2 6.5 2.6 13.9 10.4 32.2 11.4 18.3 1 44.4-11.8 46.6-20.2 0 0-1.3 25.5-29.7 35.5-28.5 10-89.2-.8-95-14.2z" />
        <linearGradient id="SVGID_85_" x1="312.665" x2="272.593" y1="2357.976" y2="2418.418"
          gradientTransform="matrix(.8749 -.3795 .3842 .8857 -564.994 -1705.953)" gradientUnits="userSpaceOnUse">
          <stop offset="0" stop-color="#fcfdff" />
          <stop offset="1" stop-color="#d1d3d4" />
        </linearGradient>
        <path fill="url(#SVGID_85_)"
          d="M586.7 254s27-6.6 42.6 16.1c22.1 32.4-7.1 65.7-7.1 65.7s16.2-35.1 5.2-48-11.2-8.8-22.8-15.1c-11.5-6.2-17.9-18.7-17.9-18.7z" />
        <linearGradient id="SVGID_86_" x1="121.192" x2="120.029" y1="2479.419" y2="2509.956"
          gradientTransform="matrix(.8749 -.3795 .3842 .8857 -564.994 -1705.953)" gradientUnits="userSpaceOnUse">
          <stop offset="0" stop-color="#fcfdff" />
          <stop offset="1" stop-color="#d1d3d4" />
        </linearGradient>
        <path fill="url(#SVGID_86_)"
          d="M441.8 456.3s21.6-9.5 36.5-13.9c14.8-4.4 49.6-4.8 63.8-19.7 0 0-13.4 25.7-42.2 42.4-28.8 16.7-46.1 4.4-58.1-8.8z" />
      </g>
    </g>
  </svg>